<svg width="100" height="25" viewBox="0 0 100 25" fill="none" xmlns="http://www.w3.org/2000/svg">
<path fill-rule="evenodd" clip-rule="evenodd" d="M23.6641 1.43891C23.6641 0.644222 23.0198 0 22.2252 0H18.3875C17.5928 0 16.9486 0.644223 16.9486 1.43891V5.27657C16.9486 6.07125 17.5928 6.71548 18.3875 6.71548H22.2252C23.0198 6.71548 23.6641 6.07125 23.6641 5.27657V1.43891ZM6.71548 3.90362e-05H5.96932C2.67256 3.90362e-05 9.53674e-06 2.67259 9.53674e-06 5.96935C9.53674e-06 6.38145 0.334078 6.71551 0.746174 6.71551H6.71548H11.9921C12.7867 6.71551 13.431 6.07129 13.431 5.2766V1.43895C13.431 0.644261 12.7867 3.90362e-05 11.992 3.90362e-05H6.71548ZM23.6641 19.6379C23.6641 18.8432 23.0198 18.1989 22.2252 18.1989H18.3875C17.5928 18.1989 16.9486 18.8432 16.9486 19.6379V23.4755C16.9486 24.2702 17.5928 24.9144 18.3875 24.9144H22.2252C23.0198 24.9144 23.6641 24.2702 23.6641 23.4755V19.6379ZM13.431 19.6379C13.431 18.8432 12.7867 18.1989 11.992 18.1989H6.71548L0.746164 18.199C0.334074 18.199 9.53674e-06 18.5331 9.53674e-06 18.9451C9.53674e-06 22.2419 2.67257 24.9144 5.96933 24.9144L6.71548 24.9144H11.9921C12.7867 24.9144 13.431 24.2702 13.431 23.4755V19.6379ZM9.53674e-06 10.5384C9.53674e-06 9.74372 0.644232 9.09949 1.43892 9.09949H5.27658C6.07126 9.09949 6.71548 9.74372 6.71548 10.5384V14.3761C6.71548 15.1707 6.07126 15.815 5.27657 15.815H1.43892C0.64423 15.815 9.53674e-06 15.1707 9.53674e-06 14.3761V10.5384ZM23.6641 10.5384C23.6641 9.74372 23.0198 9.09949 22.2252 9.09949H16.9486H11.672C10.8773 9.09949 10.2331 9.74372 10.2331 10.5384V14.3761C10.2331 15.1707 10.8773 15.815 11.672 15.815H16.9486H22.2252C23.0198 15.815 23.6641 15.1707 23.6641 14.3761V10.5384Z" fill="#47B259"/>
<path fill-rule="evenodd" clip-rule="evenodd" d="M33.145 0.48999V24.0866H41.2016C48.6177 24.0866 52.3594 19.8392 52.3594 12.2883C52.3594 4.73738 48.6177 0.48999 41.2016 0.48999H33.145ZM40.8645 21.019H36.6508V3.55755H40.8645C46.4603 3.55755 48.7862 6.32173 48.7862 12.2883C48.7862 18.2212 46.4603 21.019 40.8645 21.019ZM74.7328 9.08584C77.497 9.08584 78.8454 10.805 78.8454 13.94V24.0865H82.25V13.1647C82.25 8.20939 79.4859 6.22054 76.0475 6.22054C73.9351 6.22054 72.472 6.95835 71.5252 7.84409L70.9673 10.7841C71.7919 9.67208 73.1187 9.08584 74.7328 9.08584ZM70.0483 24.0874V6.55763H66.6426V24.0874L70.0483 24.0874ZM65.1729 22.7941C64.2264 23.6829 62.7612 24.4245 60.6433 24.4245C57.205 24.4245 54.4408 22.4356 54.4408 17.4803V6.55847H57.8454V16.705C57.8454 19.84 59.1938 21.5592 61.958 21.5592C63.5819 21.5592 64.915 20.9658 65.7384 19.8406L65.1729 22.7941ZM83.6511 15.3558C83.6511 21.6595 87.4265 24.4236 92.1459 24.4236C95.7191 24.4236 98.7192 22.8393 99.7642 18.929H96.7304C95.9887 20.9853 94.337 21.7606 92.1796 21.7606C89.0446 21.7606 87.1906 20.0751 86.9209 16.4008H99.899C99.9665 16.03 100 15.6929 100 15.0861C100 8.951 96.5281 6.22054 92.011 6.22054C87.494 6.22054 83.6511 8.91729 83.6511 15.3558ZM96.7641 13.8389H86.9546C87.258 10.5016 89.1794 8.88358 91.9773 8.88358C94.9775 8.88358 96.6966 10.7713 96.7641 13.8389Z" fill="white"/>
</svg>
